Coordinates
version=1
nRows=25
nColumns=33
inDegrees=yes

Units are S.I. units (second, meters, Newtons, ...)
Angles are in degrees.

endheader
time	ground_thorax_rot_x	ground_thorax_rot_y	ground_thorax_rot_z	ground_thorax_tx	ground_thorax_ty	ground_thorax_tz	clav_prot_r	clav_elev_r	scapula_abduction_r	scapula_elevation_r	scapula_upward_rot_r	scapula_winging_r	shoulder_elv_r	plane_of_elev_r	axial_rot_r	elbow_flexion_r	pro_sup_r	wrist_flex_r	wrist_dev_r	clav_prot_l	clav_elev_l	scapula_abduction_l	scapula_elevation_l	scapula_upward_rot_l	scapula_winging_l	shoulder_elv_l	plane_of_elev_l	axial_rot_l	elbow_flexion_l	pro_sup_l	wrist_flex_l	wrist_dev_l	
3.3800	26.847020	28.872717	46.320082	2.903481	830.141796	-45.958236	13.303373	34.842235	30.978227	45.000000	-44.861823	994.621932	2771.050484	156.348996	3.827998	1798.100847	527.074083	14.882039	15.803518	-8.932440	-45.000000	-38.168643	45.000000	-45.000000	5499.759759	-5682.662943	28.632277	45.263449	1069.969976	46.353743	13.848468	-18.327545	
3.3900	26.769437	29.006587	46.484300	5.384676	829.223669	-45.829183	13.321244	34.883451	31.011080	45.000000	-44.835914	994.744809	2771.005478	156.361987	3.842135	1798.134348	527.506867	14.807434	15.781020	-9.074182	-45.000000	-38.072196	45.000000	-45.000000	5499.612131	-5682.748813	28.610728	45.217529	1069.930668	46.494553	13.789735	-18.193903	
3.4000	26.694784	29.148297	46.652743	7.863404	828.300826	-45.696493	13.354859	34.916483	31.050894	45.000000	-44.828931	994.862261	2770.956633	156.369282	3.840446	1798.173844	527.952220	14.736294	15.750659	-9.221510	-45.000000	-37.967893	45.000000	-45.000000	5499.469897	-5682.837144	28.585522	45.154720	1069.888078	46.628493	13.728902	-18.060592	
3.4100	26.630121	29.292588	46.809055	10.340620	827.372813	-45.560317	13.378748	34.954935	31.088223	45.000000	-44.806806	994.980531	2770.905666	156.380566	3.851950	1798.214416	528.413970	14.669424	15.717134	-9.368703	-45.000000	-37.860386	45.000000	-45.000000	5499.328742	-5682.930044	28.559444	45.075137	1069.845166	46.754808	13.668849	-17.931216	
3.4200	26.569079	29.440823	46.969701	12.816568	826.438553	-45.420863	13.417327	34.986038	31.136057	45.000000	-44.807716	995.095568	2770.850971	156.386588	3.853092	1798.258948	528.885274	14.605303	15.680593	-9.521179	-45.000000	-37.744842	45.000000	-45.000000	5499.194403	-5683.026230	28.527962	44.974879	1069.801242	46.874513	13.606690	-17.802881	
3.4300	26.516555	29.591411	47.118741	15.291366	825.496140	-45.278316	13.442727	35.025935	31.178598	45.000000	-44.791903	995.211109	2770.796235	156.395975	3.879800	1798.305944	529.367272	14.545137	15.639612	-9.675074	-45.000000	-37.629470	45.000000	-45.000000	5499.058363	-5683.126186	28.493218	44.858016	1069.760485	46.989893	13.543732	-17.677308	
3.4400	26.464877	29.744659	47.274265	17.763917	824.543295	-45.132804	13.488504	35.057723	31.228617	45.000000	-44.802036	995.324013	2770.739723	156.396274	3.898400	1798.362009	529.849169	14.485931	15.594963	-9.836681	-45.000000	-37.506227	45.000000	-45.000000	5498.927673	-5683.226963	28.453042	44.714593	1069.718474	47.103997	13.478641	-17.551366	
3.4500	26.420484	29.899238	47.416090	20.232171	823.577499	-44.984288	13.506902	35.104356	31.262885	45.000000	-44.779511	995.441352	2770.687110	156.407733	3.958043	1798.413485	530.333800	14.432403	15.549167	-9.996350	-45.000000	-37.388119	45.000000	-45.000000	5498.792054	-5683.333480	28.407319	44.554630	1069.682254	47.219156	13.413770	-17.428318	
3.4600	26.373295	30.056695	47.565818	22.693554	822.596167	-44.832564	13.545579	35.144634	31.296271	45.000000	-44.780683	995.557812	2770.636176	156.413484	4.011200	1798.467845	530.808601	14.381646	15.503626	-10.163434	-45.000000	-37.264590	45.000000	-45.000000	5498.659829	-5683.442595	28.353298	44.364571	1069.647243	47.338420	13.346525	-17.304277	
3.4700	26.332432	30.214799	47.700256	25.145575	821.596923	-44.677368	13.559397	35.201900	31.315011	45.000000	-44.753548	995.675041	2770.584345	156.431370	4.099629	1798.515404	531.279438	14.340496	15.455682	-10.334069	-45.000000	-37.146283	45.000000	-45.000000	5498.520488	-5683.560469	28.293045	44.159506	1069.620488	47.464122	13.279275	-17.183343	
3.4800	26.279656	30.379082	47.853422	27.586149	820.577921	-44.518593	13.600460	35.243324	31.329464	45.000000	-44.765582	995.793784	2770.534229	156.443892	4.164107	1798.564695	531.734378	14.303772	15.406470	-10.510279	-45.000000	-37.021188	45.000000	-45.000000	5498.384813	-5683.680315	28.222497	43.917027	1069.594585	47.599371	13.208588	-17.060336	
3.4900	26.235808	30.539308	47.988178	30.014166	819.537956	-44.356466	13.611044	35.305301	31.332566	45.000000	-44.742785	995.913507	2770.480026	156.470832	4.269569	1798.609522	532.185445	14.277703	15.352733	-10.690395	-45.000000	-36.898285	45.000000	-45.000000	5498.242602	-5683.811784	28.148234	43.663906	1069.578834	47.745581	13.139552	-16.944916	
3.5000	26.172353	30.709070	48.149494	32.429140	818.476555	-44.191626	13.647861	35.345856	31.322986	45.000000	-44.760014	996.039222	2770.432251	156.495867	4.355437	1798.655092	532.618531	14.254254	15.293567	-10.869800	-45.000000	-36.769285	45.000000	-45.000000	5498.100354	-5683.942348	28.060002	43.372393	1069.566805	47.905325	13.061880	-16.825835	
3.5100	26.125436	30.866521	48.282151	34.831213	817.393714	-44.025015	13.652517	35.411650	31.311556	45.000000	-44.739482	996.161883	2770.376441	156.529624	4.488206	1798.705308	533.047196	14.236394	15.229511	-11.054793	-45.000000	-36.641902	45.000000	-45.000000	5497.954920	-5684.086129	27.976380	43.076115	1069.562764	48.078727	12.988574	-16.720567	
3.5200	26.063780	31.024753	48.433684	37.220607	816.289574	-43.857643	13.669225	35.457141	31.296031	45.000000	-44.755424	996.292256	2770.326190	156.561029	4.604131	1798.761080	533.458044	14.214007	15.168690	-11.231301	-45.000000	-36.513783	45.000000	-45.000000	5497.820295	-5684.229846	27.889491	42.748207	1069.555947	48.266417	12.914843	-16.622064	
3.5300	26.023531	31.161875	48.550779	39.597392	815.164103	-43.690401	13.651360	35.529234	31.289063	45.000000	-44.731842	996.420648	2770.266848	156.599726	4.766962	1798.824042	533.864048	14.189932	15.110763	-11.411840	-45.000000	-36.387333	45.000000	-45.000000	5497.691076	-5684.385744	27.812655	42.420806	1069.552280	48.465222	12.851223	-16.543904	
3.5400	25.963722	31.300593	48.690037	41.961192	814.016897	-43.523961	13.645080	35.580173	31.281058	45.000000	-44.746554	996.554687	2770.209709	156.638067	4.911809	1798.888747	534.250750	14.159172	15.052457	-11.584854	-45.000000	-36.262790	45.000000	-45.000000	5497.571726	-5684.536154	27.728351	42.067926	1069.546275	48.673049	12.783050	-16.467210	
3.5500	25.914653	31.425726	48.808724	44.311483	812.847063	-43.358907	13.613468	35.649240	31.278745	45.000000	-44.732920	996.683816	2770.143699	156.683660	5.092206	1798.953309	534.627321	14.125848	14.992421	-11.760821	-45.000000	-36.139183	45.000000	-45.000000	5497.457350	-5684.694314	27.648382	41.713224	1069.544465	48.884024	12.719421	-16.401493	
3.5600	25.842970	31.557689	48.951325	46.647833	811.653192	-43.195875	13.595950	35.697766	31.260841	45.000000	-44.745342	996.820987	2770.086511	156.730709	5.267218	1799.009013	534.981219	14.086208	14.929383	-11.927629	-45.000000	-36.014006	45.000000	-45.000000	5497.345433	-5684.845969	27.556346	41.328787	1069.544667	49.093629	12.647472	-16.329526	
3.5700	25.766298	31.692754	49.090789	48.970048	810.433511	-43.035818	13.571417	35.749104	31.215777	45.000000	-44.724454	996.960464	2770.033746	156.785551	5.476339	1799.055598	535.314647	14.042598	14.856543	-12.092800	-45.000000	-35.883732	45.000000	-45.000000	5497.224556	-5685.000304	27.455840	40.923375	1069.553357	49.295810	12.567442	-16.249244	
3.5800	25.668029	31.834969	49.257232	51.278010	809.186019	-42.879939	13.560090	35.783611	31.162862	45.000000	-44.738362	997.103497	2769.985897	156.838970	5.682703	1799.095920	535.618161	13.994779	14.777115	-12.254195	-45.000000	-35.749710	45.000000	-45.000000	5497.109999	-5685.150275	27.342586	40.493747	1069.567368	49.487223	12.478989	-16.158709	
3.5900	25.569118	31.972622	49.424680	53.571467	807.908597	-42.729596	13.538052	35.824110	31.118486	45.000000	-44.754708	997.243516	2769.932150	156.897394	5.909219	1799.138052	535.897605	13.944631	14.696622	-12.417541	-45.000000	-35.611062	45.000000	-45.000000	5497.008525	-5685.306805	27.229863	40.052847	1069.587147	49.665980	12.395455	-16.071553	
3.6000	25.464461	32.103351	49.602311	55.849483	806.599223	-42.585811	13.514453	35.862159	31.094969	45.000000	-44.807985	997.387178	2769.875622	156.957978	6.142552	1799.183680	536.152760	13.891553	14.624760	-12.579696	-45.000000	-35.469343	45.000000	-45.000000	5496.928935	-5685.464530	27.118438	39.595933	1069.608022	49.833102	12.321756	-15.993140	
3.6100	25.354811	32.233604	49.783566	58.109799	805.256346	-42.449098	13.485219	35.900995	31.071145	45.000000	-44.858479	997.536301	2769.816958	157.029876	6.397941	1799.232052	536.384834	13.836644	14.554934	-12.741449	-45.000000	-35.323460	45.000000	-45.000000	5496.857248	-5685.623886	27.003303	39.116677	1069.632952	49.989949	12.251991	-15.916716	
3.6200	25.243360	32.358658	49.966137	60.348524	803.879180	-42.319141	13.452067	35.942857	31.055693	45.000000	-44.922768	997.690820	2769.758739	157.107826	6.678036	1799.280922	536.590847	13.781213	14.491809	-12.903299	-45.000000	-35.174948	45.000000	-45.000000	5496.798322	-5685.783623	26.886264	38.617605	1069.660679	50.137621	12.188831	-15.846970	
